<?xml version="1.0" encoding="UTF-8" standalone="no"?>
<svg width="131px" height="70px" viewBox="0 0 131 70" version="1.1" xmlns="http://www.w3.org/2000/svg" xmlns:xlink="http://www.w3.org/1999/xlink">
    <!-- Generator: Sketch 3.7.2 (28276) - http://www.bohemiancoding.com/sketch -->
    <title>amber_logo_color</title>
    <desc>Created with Sketch.</desc>
    <defs></defs>
    <g id="0001_landing_page" stroke="none" stroke-width="1" fill="none" fill-rule="evenodd">
        <g id="0001_landing_page_1a" transform="translate(-618.000000, -1480.000000)">
            <g id="body" transform="translate(0.000000, 632.000000)">
                <g id="amber_logo_color" transform="translate(618.000000, 848.000000)">
                    <path d="M23.046875,27 L15.8428955,27 L15.4882812,22.15625 L12.9296875,22.15625 L12.543335,27 L5.390625,27 L8.9453125,0.125 L19.0625,0.125 L23.046875,27 Z M15.3515625,17.3515625 C15.1171863,15.3723859 14.8828137,13.1653768 14.6484375,10.7304688 C14.4140613,8.29556074 14.296875,6.75260742 14.296875,6.1015625 C14.1145824,7.35156875 13.8541684,9.42186055 13.515625,12.3125 C13.2812488,14.1875094 13.0859383,15.8671801 12.9296875,17.3515625 L15.3515625,17.3515625 Z M45.4621875,27 L39.3684375,27 L39.3684375,8.8359375 L36.516875,27 L32.1809375,27 L29.25125,9.2265625 L29.25125,27 L23.1575,27 L23.1575,0.125 L32.5325,0.125 C32.8189598,2.15626016 33.0403117,3.74478594 33.1965625,4.890625 C33.6913567,8.38022578 34.0689571,10.9713457 34.329375,12.6640625 C34.5637512,11.3098891 34.8241653,9.55209414 35.110625,7.390625 C35.2929176,6.03645156 35.4882282,4.36980156 35.6965625,2.390625 C35.7746879,1.63541289 35.8528121,0.880212109 35.9309375,0.125 L45.4621875,0.125 L45.4621875,27 Z M62.7603126,20.7109375 C62.7603126,23.080741 62.1483395,24.7213496 60.9243751,25.6328125 C59.7004106,26.5442754 57.578036,27 54.5571876,27 L46.4712501,27 L46.4712501,0.125 L54.7134376,0.125 C57.2655337,0.125 59.160046,0.678379883 60.3970313,1.78515625 C61.6340167,2.89193262 62.2525001,4.61717578 62.2525001,6.9609375 C62.2525001,8.88803047 62.0702102,10.1640594 61.7056251,10.7890625 C61.2629145,11.5442746 60.2212583,12.1041648 58.5806251,12.46875 C60.2212583,12.859377 61.328018,13.4778604 61.9009376,14.3242188 C62.4738571,15.1705771 62.7603126,16.4661371 62.7603126,18.2109375 L62.7603126,20.7109375 Z M55.7290626,7.2734375 C55.7290626,6.10155664 55.5858348,5.38541797 55.2993751,5.125 C55.0129153,4.86458203 54.4009422,4.734375 53.4634376,4.734375 L53.4634376,10.671875 L54.1665626,10.671875 C54.8696911,10.671875 55.3058846,10.4895852 55.4751563,10.125 C55.644428,9.76041484 55.7290626,8.80990352 55.7290626,7.2734375 L55.7290626,7.2734375 Z M55.7290626,19.890625 L55.7290626,17.3515625 C55.7290626,16.2057234 55.6183866,15.5091158 55.3970313,15.2617188 C55.175676,15.0143217 54.5311512,14.890625 53.4634376,14.890625 L53.4634376,22.3515625 C54.426984,22.3515625 55.0454674,22.2148451 55.3189063,21.9414062 C55.5923452,21.6679674 55.7290626,20.9843805 55.7290626,19.890625 L55.7290626,19.890625 Z M75.7225001,27 L63.6521876,27 L63.6521876,0.125 L75.2928126,0.125 L75.2928126,5.4765625 L70.6443751,5.4765625 L70.6443751,10.59375 L75.0193751,10.59375 L75.0193751,15.7109375 L70.6443751,15.7109375 L70.6443751,21.6484375 L75.7225001,21.6484375 L75.7225001,27 Z M92.2393751,27 L85.7550001,27 L85.7550001,17.2734375 C85.7550001,16.309891 85.6247931,15.6718766 85.3643751,15.359375 C85.1039571,15.0468734 84.5310462,14.890625 83.6456251,14.890625 L83.6456251,27 L76.6534376,27 L76.6534376,0.125 L81.6143751,0.125 C85.728979,0.125 88.3461403,0.398434766 89.4659376,0.9453125 C91.3149052,1.85677539 92.2393751,4.01821211 92.2393751,7.4296875 C92.2393751,9.46094766 92.0310439,10.8151008 91.6143751,11.4921875 C91.119581,12.2994832 90.0518833,12.7942699 88.4112501,12.9765625 C90.0779251,13.419273 91.1586435,14.0833289 91.6534376,14.96875 C92.0440646,15.6718785 92.2393751,16.9999902 92.2393751,18.953125 L92.2393751,27 Z M85.7550001,8.2890625 L85.7550001,6.8046875 C85.7550001,6.10155898 85.6638552,5.60677227 85.4815626,5.3203125 C85.2211446,4.92968555 84.7133372,4.734375 83.9581251,4.734375 L83.6456251,4.734375 L83.6456251,10.671875 C84.557088,10.671875 85.1365093,10.5221369 85.3839064,10.2226562 C85.6313034,9.92317559 85.7550001,9.27865078 85.7550001,8.2890625 L85.7550001,8.2890625 Z" id="AMBER" fill="#008DB1"></path>
                    <path d="M27.9726562,70 L16.806488,70 L16.2568359,62.4921875 L12.2910156,62.4921875 L11.6921692,70 L0.60546875,70 L6.11523438,28.34375 L21.796875,28.34375 L27.9726562,70 Z M16.0449219,55.0449219 C15.6816388,51.9771982 15.3183612,48.556334 14.9550781,44.7822266 C14.5917951,41.0081192 14.4101562,38.6165415 14.4101562,37.6074219 C14.1276028,39.5449316 13.723961,42.7538838 13.1992188,47.234375 C12.8359357,50.1406395 12.5332043,52.7441291 12.2910156,55.0449219 L16.0449219,55.0449219 Z M48.3667812,70 L27.7202969,70 L27.7202969,28.34375 L38.5581875,28.34375 L38.5581875,61.7050781 L48.3667812,61.7050781 L48.3667812,70 Z M68.0948906,70 L49.3859062,70 L49.3859062,28.34375 L67.428875,28.34375 L67.428875,36.6386719 L60.2237968,36.6386719 L60.2237968,44.5703125 L67.0050468,44.5703125 L67.0050468,52.5019531 L60.2237968,52.5019531 L60.2237968,61.7050781 L68.0948906,61.7050781 L68.0948906,70 Z M93.6960468,70 L83.6452656,70 L83.6452656,54.9238281 C83.6452656,53.4303311 83.4434447,52.4414087 83.0397968,51.9570312 C82.636149,51.4726538 81.748137,51.2304688 80.3757343,51.2304688 L80.3757343,70 L69.5378437,70 L69.5378437,28.34375 L77.2272968,28.34375 C83.6049329,28.34375 87.6615329,28.7675739 89.3972187,29.6152344 C92.2631185,31.0280019 93.6960468,34.3782288 93.6960468,39.6660156 C93.6960468,42.8144689 93.3731334,44.9134062 92.7272968,45.9628906 C91.9603659,47.214199 90.3054345,47.9811184 87.7624531,48.2636719 C90.3457993,48.9498732 92.0209128,49.9791598 92.7878437,51.3515625 C93.3933155,52.4414117 93.6960468,54.4999849 93.6960468,57.5273438 L93.6960468,70 Z M83.6452656,40.9980469 L83.6452656,38.6972656 C83.6452656,37.6074164 83.503991,36.840497 83.2214375,36.3964844 C82.8177896,35.7910126 82.0306881,35.4882812 80.8601093,35.4882812 L80.3757343,35.4882812 L80.3757343,44.6914062 C81.7885018,44.6914062 82.6866048,44.4593122 83.0700703,43.9951172 C83.4535357,43.5309222 83.6452656,42.5319087 83.6452656,40.9980469 L83.6452656,40.9980469 Z" id="ALER" fill="#008DB1"></path>
                    <path d="M101.155273,8.234375 C100.129878,8.234375 99.2485388,7.86084358 98.5112305,7.11376953 C97.7739221,6.36669548 97.4052734,5.47559111 97.4052734,4.44042969 C97.4052734,3.39224736 97.7763635,2.49788782 98.5185547,1.75732422 C99.2607459,1.01676062 100.154292,0.646484375 101.199219,0.646484375 C102.244146,0.646484375 103.137692,1.01676062 103.879883,1.75732422 C104.622074,2.49788782 104.993164,3.38899219 104.993164,4.43066406 C104.993164,5.49186729 104.62126,6.39110959 103.877441,7.12841797 C103.133623,7.86572634 102.226242,8.234375 101.155273,8.234375 L101.155273,8.234375 Z M101.155273,7.60449219 C102.18718,7.60449219 103.007484,7.22526421 103.616211,6.46679688 C104.11426,5.8483042 104.363281,5.17122764 104.363281,4.43554688 C104.363281,3.70637656 104.11426,3.03255518 103.616211,2.4140625 C103.007484,1.65559517 102.201828,1.27636719 101.199219,1.27636719 C100.19661,1.27636719 99.3909536,1.65559517 98.7822266,2.4140625 C98.2841772,3.03255518 98.0351562,3.70800415 98.0351562,4.44042969 C98.0351562,5.29980898 98.3435842,6.04198906 98.9604492,6.66699219 C99.5773143,7.29199531 100.308915,7.60449219 101.155273,7.60449219 L101.155273,7.60449219 Z M99.6904297,6.48144531 L99.6904297,2.37988281 L101.335938,2.37988281 C102.253911,2.37988281 102.712891,2.71842109 102.712891,3.39550781 C102.712891,3.93913032 102.421552,4.32975142 101.838867,4.56738281 L103.044922,6.48144531 L101.975586,6.48144531 L101.052734,4.80664062 L100.530273,4.80664062 L100.530273,6.48144531 L99.6904297,6.48144531 Z M100.530273,4.24511719 L100.75,4.24511719 C101.456384,4.24511719 101.80957,3.99446865 101.80957,3.49316406 C101.80957,3.12857891 101.492191,2.94628906 100.857422,2.94628906 L100.530273,2.94628906 L100.530273,4.24511719 Z" id="®" fill="#008DB1"></path>
                    <path d="M130.794504,33.7193389 C126.787422,40.4729153 119.42239,45 111,45 C98.2974508,45 88,34.7025492 88,22 C88,15.4134916 90.7685888,9.4736217 95.2054956,5.2806611 C93.1691436,8.7127492 92,12.7198405 92,17 C92,29.7025492 102.297451,40 115,40 C121.116041,40 126.674521,37.6128006 130.794504,33.7193389 Z" id="Combined-Shape" fill="#008DB1"></path>
                    <polygon id="Rectangle-180" fill="#008DB1" points="94 35 106 39 106 70 94 70"></polygon>
                    <path d="M101,26 C101,26 102,29 104,31 C106,33 109,33 109,33" id="Path-212" stroke="#008DB1" stroke-width="2"></path>
                    <path d="M103,18 C103,18 104,23 108,26 C112,29 116,29 116,29" id="Path-212-Copy" stroke="#008DB1" stroke-width="3"></path>
                    <path d="M106,10 C106,10 107,16 112,20 C117,24 123,24 123,24" id="Path-212-Copy-2" stroke="#008DB1" stroke-width="4"></path>
                </g>
            </g>
        </g>
    </g>
</svg>