<?xml version="1.0" encoding="UTF-8" standalone="no"?>
<svg width="173px" height="64px" viewBox="0 0 173 64" version="1.1" xmlns="http://www.w3.org/2000/svg" xmlns:xlink="http://www.w3.org/1999/xlink">
    <!-- Generator: Sketch 3.7.2 (28276) - http://www.bohemiancoding.com/sketch -->
    <title>logo_header</title>
    <desc>Created with Sketch.</desc>
    <defs>
        <ellipse id="path-1" cx="28.3710407" cy="31.8693878" rx="25.2760181" ry="25.6"></ellipse>
        <mask id="mask-2" maskContentUnits="userSpaceOnUse" maskUnits="objectBoundingBox" x="0" y="0" width="50.5520362" height="51.2" fill="white">
            <use xlink:href="#path-1"></use>
        </mask>
        <rect id="path-3" x="4.95652174" y="18.8235294" width="24.4728261" height="19.7647059"></rect>
        <mask id="mask-4" maskContentUnits="userSpaceOnUse" maskUnits="objectBoundingBox" x="0" y="0" width="24.4728261" height="19.7647059" fill="white">
            <use xlink:href="#path-3"></use>
        </mask>
        <path d="M34.0515567,18.8235294 L56.0544625,1.89976491 C57.4185618,0.850553722 58.5243827,1.39072805 58.5243827,3.12747723 L58.5243827,54.2842875 C58.5243827,56.0115455 57.4092432,56.5540435 56.0544625,55.5119998 L34.0515567,38.5882353 L34.0515567,18.8235294 Z" id="path-5"></path>
        <mask id="mask-6" maskContentUnits="userSpaceOnUse" maskUnits="objectBoundingBox" x="0" y="0" width="24.4728261" height="57.4117647" fill="white">
            <use xlink:href="#path-5"></use>
        </mask>
        <path d="M0.0239680304,24.4350942 C0.0239680304,23.0685706 0.956251857,21.3706907 2.12597947,20.6303058 L4.98048977,18.8235294 L4.98048977,38.5882353 L2.12597947,36.7814589 C0.965070609,36.0466559 0.0239680304,34.347021 0.0239680304,32.9766705 L0.0239680304,24.4350942 Z" id="path-7"></path>
        <mask id="mask-8" maskContentUnits="userSpaceOnUse" maskUnits="objectBoundingBox" x="0" y="0" width="4.95652174" height="19.7647059" fill="white">
            <use xlink:href="#path-7"></use>
        </mask>
        <path d="M57.9293478,21.9607843 L60.7838581,23.7675607 C61.944767,24.5023637 62.8858696,26.2096768 62.8858696,27.5812691 L62.8858696,29.8304956 C62.8858696,31.2019456 61.9535857,32.9038191 60.7838581,33.644204 L57.9293478,35.4509804 L57.9293478,21.9607843 Z" id="path-9"></path>
        <mask id="mask-10" maskContentUnits="userSpaceOnUse" maskUnits="objectBoundingBox" x="0" y="0" width="4.95652174" height="13.4901961" fill="white">
            <use xlink:href="#path-9"></use>
        </mask>
        <rect id="path-11" x="29.1195652" y="18.8235294" width="4.95652174" height="19.7647059"></rect>
        <mask id="mask-12" maskContentUnits="userSpaceOnUse" maskUnits="objectBoundingBox" x="0" y="0" width="4.95652174" height="19.7647059" fill="white">
            <use xlink:href="#path-11"></use>
        </mask>
        <path d="M5.26630435,38.2745098 L10.2228261,38.2745098 L12.8800991,53.0755297 C13.1234098,54.4307713 12.1959407,55.5294118 10.8278703,55.5294118 L10.8569123,55.5294118 C9.48018689,55.5294118 8.16563499,54.4237914 7.92357737,53.0755297 L5.26630435,38.2745098 Z" id="path-13"></path>
        <mask id="mask-14" maskContentUnits="userSpaceOnUse" maskUnits="objectBoundingBox" x="0" y="0" width="8.05434783" height="17.254902" fill="white">
            <use xlink:href="#path-13"></use>
        </mask>
        <path d="M10.2228261,38.3189444 L12.701087,38.3189444 L13.354116,42.2869887 C13.5067226,43.2142828 12.8734087,43.9660032 11.9363111,43.9660032 L11.1521739,43.9660032 L10.2228261,38.3189444 Z" id="path-15"></path>
        <mask id="mask-16" maskContentUnits="userSpaceOnUse" maskUnits="objectBoundingBox" x="0" y="0" width="3.4076087" height="5.64705882" fill="white">
            <use xlink:href="#path-15"></use>
        </mask>
        <rect id="path-17" x="21.9945652" y="54.5882353" width="13.6304348" height="1.25490196" rx="3.11999989"></rect>
        <mask id="mask-18" maskContentUnits="userSpaceOnUse" maskUnits="objectBoundingBox" x="0" y="0" width="13.6304348" height="1.25490196" fill="white">
            <use xlink:href="#path-17"></use>
        </mask>
        <rect id="path-19" x="21.6847826" y="54.2745098" width="13.6304348" height="1.25490196" rx="3.11999989"></rect>
        <mask id="mask-20" maskContentUnits="userSpaceOnUse" maskUnits="objectBoundingBox" x="0" y="0" width="13.6304348" height="1.25490196" fill="white">
            <use xlink:href="#path-19"></use>
        </mask>
        <rect id="path-21" x="21.9945652" y="52.3921569" width="13.6304348" height="1.25490196" rx="3.11999989"></rect>
        <mask id="mask-22" maskContentUnits="userSpaceOnUse" maskUnits="objectBoundingBox" x="0" y="0" width="13.6304348" height="1.25490196" fill="white">
            <use xlink:href="#path-21"></use>
        </mask>
        <rect id="path-23" x="21.6847826" y="52.0784314" width="13.6304348" height="1.25490196" rx="3.11999989"></rect>
        <mask id="mask-24" maskContentUnits="userSpaceOnUse" maskUnits="objectBoundingBox" x="0" y="0" width="13.6304348" height="1.25490196" fill="white">
            <use xlink:href="#path-23"></use>
        </mask>
        <rect id="path-25" x="21.9945652" y="50.1960784" width="13.6304348" height="1.25490196" rx="3.11999989"></rect>
        <mask id="mask-26" maskContentUnits="userSpaceOnUse" maskUnits="objectBoundingBox" x="0" y="0" width="13.6304348" height="1.25490196" fill="white">
            <use xlink:href="#path-25"></use>
        </mask>
        <rect id="path-27" x="21.6847826" y="49.8823529" width="13.6304348" height="1.25490196" rx="3.11999989"></rect>
        <mask id="mask-28" maskContentUnits="userSpaceOnUse" maskUnits="objectBoundingBox" x="0" y="0" width="13.6304348" height="1.25490196" fill="white">
            <use xlink:href="#path-27"></use>
        </mask>
        <rect id="path-29" x="25.0923913" y="21.9607843" width="7.43478261" height="1.25490196" rx="3.11999989"></rect>
        <mask id="mask-30" maskContentUnits="userSpaceOnUse" maskUnits="objectBoundingBox" x="0" y="0" width="7.43478261" height="1.25490196" fill="white">
            <use xlink:href="#path-29"></use>
        </mask>
        <rect id="path-31" x="24.7826087" y="21.6470588" width="7.43478261" height="1.25490196" rx="3.11999989"></rect>
        <mask id="mask-32" maskContentUnits="userSpaceOnUse" maskUnits="objectBoundingBox" x="0" y="0" width="7.43478261" height="1.25490196" fill="white">
            <use xlink:href="#path-31"></use>
        </mask>
    </defs>
    <g id="0001_landing_page" stroke="none" stroke-width="1" fill="none" fill-rule="evenodd">
        <g id="0001_landing_page_1a" transform="translate(-121.000000, -37.000000)">
            <g id="header">
                <g id="logo_header" transform="translate(120.000000, 37.000000)">
                    <use id="Oval-17" stroke-opacity="0.398550725" stroke="#008DB1" mask="url(#mask-2)" stroke-width="4.15999985" fill="#DAF8FF" xlink:href="#path-1"></use>
                    <text id="MISSINGKIDS-" font-family="Oswald-Regular, Oswald" font-size="20" font-weight="normal" line-spacing="20" fill="#FFFFFF">
                        <tspan x="67" y="37">MISSINGKIDS </tspan>
                        <tspan x="67.6445312" y="57.78125" font-family="Oswald-Light, Oswald" font-weight="300">BOT</tspan>
                    </text>
                    <path d="M68.25,32 L68.25,14.5 L71.7070312,14.5 L74.1875,27.8984375 L76.6679688,14.5 L80.125,14.5 L80.125,32 L77.625,32 L77.625,18.1914062 L75.125,32 L73.25,32 L70.75,18.1914062 L70.75,32 L68.25,32 Z M82.7421875,32 L82.7421875,14.5 L85.2421875,14.5 L85.2421875,32 L82.7421875,32 Z M92.4785156,32.1757812 C90.9029869,32.1757812 89.7001995,31.7135463 88.8701172,30.7890625 C88.0400349,29.8645787 87.5761724,28.6015705 87.4785156,27 L89.9785156,26.375 C90.1022142,28.8750125 90.9355392,30.125 92.4785156,30.125 C93.7285219,30.125 94.3535156,29.5000062 94.3535156,28.25 C94.3535156,27.8789044 94.3030604,27.5354833 94.2021484,27.2197266 C94.1012365,26.9039698 93.9466156,26.6142591 93.7382812,26.3505859 C93.5299469,26.0869127 93.3411467,25.8753263 93.171875,25.7158203 C93.0026033,25.5563143 92.7714858,25.3593762 92.4785156,25.125 L89.3535156,22.625 C88.7805961,22.175779 88.3232439,21.6044957 87.9814453,20.9111328 C87.6396467,20.21777 87.46875,19.4283898 87.46875,18.5429688 C87.46875,17.2538998 87.8691366,16.2285194 88.6699219,15.4667969 C89.4707071,14.7050743 90.5318944,14.3242188 91.8535156,14.3242188 C93.2727936,14.3242188 94.400712,14.670895 95.2373047,15.3642578 C96.0738974,16.0576207 96.5898428,17.0390562 96.7851562,18.3085938 C96.8046876,18.4453132 96.8274738,18.6341134 96.8535156,18.875 L94.3535156,19.5 C94.3470052,19.3893224 94.3307293,19.2233084 94.3046875,19.0019531 C94.1940099,18.2076783 93.9449889,17.5712915 93.5576172,17.0927734 C93.1702455,16.6142554 92.6022173,16.375 91.8535156,16.375 C91.2545543,16.375 90.7923193,16.5426416 90.4667969,16.8779297 C90.1412744,17.2132178 89.9785156,17.6803355 89.9785156,18.2792969 C89.9785156,19.2623747 90.3951781,20.0859342 91.2285156,20.75 L94.3535156,23.25 C96.0201906,24.597663 96.8535156,26.208975 96.8535156,28.0839844 C96.8535156,29.3665429 96.4580118,30.369137 95.6669922,31.0917969 C94.8759726,31.8144567 93.8131577,32.1757812 92.4785156,32.1757812 L92.4785156,32.1757812 Z M103.240234,32.1757812 C101.664706,32.1757812 100.461918,31.7135463 99.6318359,30.7890625 C98.8017537,29.8645787 98.3378911,28.6015705 98.2402344,27 L100.740234,26.375 C100.863933,28.8750125 101.697258,30.125 103.240234,30.125 C104.490241,30.125 105.115234,29.5000062 105.115234,28.25 C105.115234,27.8789044 105.064779,27.5354833 104.963867,27.2197266 C104.862955,26.9039698 104.708334,26.6142591 104.5,26.3505859 C104.291666,26.0869127 104.102865,25.8753263 103.933594,25.7158203 C103.764322,25.5563143 103.533205,25.3593762 103.240234,25.125 L100.115234,22.625 C99.5423148,22.175779 99.0849626,21.6044957 98.7431641,20.9111328 C98.4013655,20.21777 98.2304688,19.4283898 98.2304688,18.5429688 C98.2304688,17.2538998 98.6308554,16.2285194 99.4316406,15.4667969 C100.232426,14.7050743 101.293613,14.3242188 102.615234,14.3242188 C104.034512,14.3242188 105.162431,14.670895 105.999023,15.3642578 C106.835616,16.0576207 107.351562,17.0390562 107.546875,18.3085938 C107.566406,18.4453132 107.589193,18.6341134 107.615234,18.875 L105.115234,19.5 C105.108724,19.3893224 105.092448,19.2233084 105.066406,19.0019531 C104.955729,18.2076783 104.706708,17.5712915 104.319336,17.0927734 C103.931964,16.6142554 103.363936,16.375 102.615234,16.375 C102.016273,16.375 101.554038,16.5426416 101.228516,16.8779297 C100.902993,17.2132178 100.740234,17.6803355 100.740234,18.2792969 C100.740234,19.2623747 101.156897,20.0859342 101.990234,20.75 L105.115234,23.25 C106.781909,24.597663 107.615234,26.208975 107.615234,28.0839844 C107.615234,29.3665429 107.219731,30.369137 106.428711,31.0917969 C105.637691,31.8144567 104.574876,32.1757812 103.240234,32.1757812 L103.240234,32.1757812 Z M109.558594,32 L109.558594,14.5 L112.058594,14.5 L112.058594,32 L109.558594,32 Z M114.734375,32 L114.734375,14.5 L116.609375,14.5 L120.984375,25.3203125 L120.984375,14.5 L123.484375,14.5 L123.484375,32 L121.707031,32 L117.234375,20.359375 L117.234375,32 L114.734375,32 Z M130.671875,32.1757812 C129.87109,32.1757812 129.17611,32.0618501 128.586914,31.8339844 C127.997718,31.6061187 127.51758,31.296877 127.146484,30.90625 C126.775389,30.515623 126.479168,30.0175812 126.257812,29.4121094 C126.036457,28.8066376 125.883464,28.1686231 125.798828,27.4980469 C125.714192,26.8274706 125.671875,26.0559939 125.671875,25.1835938 L125.671875,20.75 C125.671875,16.4661244 127.371077,14.3242188 130.769531,14.3242188 C131.583337,14.3242188 132.289711,14.4462878 132.888672,14.6904297 C133.487633,14.9345715 133.972654,15.2910133 134.34375,15.7597656 C134.714846,16.228518 134.994791,16.7770151 135.183594,17.4052734 C135.372397,18.0335318 135.483073,18.7610636 135.515625,19.5878906 C135.522135,19.7050787 135.525391,19.8841134 135.525391,20.125 L133.025391,20.125 L133.025391,19.5976562 C133.01888,19.1874979 132.997722,18.8343114 132.961914,18.5380859 C132.926107,18.2418605 132.861003,17.9505223 132.766602,17.6640625 C132.6722,17.3776027 132.543621,17.1448577 132.380859,16.9658203 C132.218098,16.786783 132.001629,16.6435552 131.731445,16.5361328 C131.461262,16.4287104 131.140627,16.375 130.769531,16.375 C130.261716,16.375 129.833661,16.4677725 129.485352,16.6533203 C129.137043,16.8388681 128.870118,17.1090477 128.68457,17.4638672 C128.499023,17.8186867 128.367188,18.2093078 128.289062,18.6357422 C128.210937,19.0621766 128.171875,19.5585909 128.171875,20.125 L128.171875,25.75 C128.171875,26.1666687 128.184896,26.5426416 128.210938,26.8779297 C128.236979,27.2132178 128.280924,27.5550113 128.342773,27.9033203 C128.404623,28.2516293 128.495768,28.5527331 128.616211,28.8066406 C128.736654,29.0605481 128.886392,29.290038 129.06543,29.4951172 C129.244467,29.7001963 129.469074,29.8564448 129.739258,29.9638672 C130.009441,30.0712896 130.320311,30.125 130.671875,30.125 C131.088544,30.125 131.449868,30.0436206 131.755859,29.8808594 C132.06185,29.7180981 132.304361,29.5081393 132.483398,29.2509766 C132.662436,28.9938138 132.804036,28.6666687 132.908203,28.2695312 C133.01237,27.8723938 133.082357,27.4785176 133.118164,27.0878906 C133.153972,26.6972637 133.171875,26.2513046 133.171875,25.75 L133.171875,25.125 L130.671875,25.125 L130.671875,23.2695312 L135.671875,23.2695312 L135.671875,32 L133.796875,32 L133.171875,30.125 C132.683591,31.4921943 131.850266,32.1757812 130.671875,32.1757812 L130.671875,32.1757812 Z M137.693359,32 L137.693359,14.5 L140.193359,14.5 L140.193359,22 L143.943359,14.5 L147.068359,14.5 L143.308594,21.375 L147.693359,32 L144.568359,32 L141.443359,23.875 L140.193359,26.375 L140.193359,32 L137.693359,32 Z M148.728516,32 L148.728516,14.5 L151.228516,14.5 L151.228516,32 L148.728516,32 Z M153.904297,32 L153.904297,14.5 L157.78125,14.5 C159.610686,14.5 160.901363,14.8743452 161.65332,15.6230469 C162.405277,16.3717485 162.78125,17.6640533 162.78125,19.5 L162.78125,26.375 C162.78125,28.2955825 162.398767,29.7132116 161.633789,30.6279297 C160.868811,31.5426478 159.578134,32 157.761719,32 L153.904297,32 Z M156.404297,30.125 L157.78125,30.125 C158.191408,30.125 158.542967,30.0875655 158.835938,30.0126953 C159.128908,29.9378251 159.366536,29.8011078 159.548828,29.6025391 C159.731121,29.4039704 159.874348,29.2151702 159.978516,29.0361328 C160.082683,28.8570955 160.155924,28.5787779 160.198242,28.2011719 C160.24056,27.8235658 160.264974,27.5126965 160.271484,27.2685547 C160.277995,27.0244128 160.28125,26.6451849 160.28125,26.1308594 L160.28125,25.75 L160.28125,20.125 C160.28125,19.805988 160.279622,19.5520843 160.276367,19.3632812 C160.273112,19.1744782 160.263346,18.9514987 160.24707,18.6943359 C160.230794,18.4371732 160.20638,18.2337247 160.173828,18.0839844 C160.141276,17.934244 160.095703,17.7666025 160.037109,17.5810547 C159.978515,17.3955069 159.905274,17.2506516 159.817383,17.1464844 C159.729492,17.0423172 159.622071,16.9332688 159.495117,16.8193359 C159.368163,16.7054031 159.221681,16.6207685 159.055664,16.5654297 C158.889648,16.5100909 158.695965,16.4645184 158.474609,16.4287109 C158.253254,16.3929035 158.005861,16.375 157.732422,16.375 L156.404297,16.375 L156.404297,30.125 Z M169.529297,32.1757812 C167.953768,32.1757812 166.750981,31.7135463 165.920898,30.7890625 C165.090816,29.8645787 164.626954,28.6015705 164.529297,27 L167.029297,26.375 C167.152995,28.8750125 167.98632,30.125 169.529297,30.125 C170.779303,30.125 171.404297,29.5000062 171.404297,28.25 C171.404297,27.8789044 171.353842,27.5354833 171.25293,27.2197266 C171.152018,26.9039698 170.997397,26.6142591 170.789062,26.3505859 C170.580728,26.0869127 170.391928,25.8753263 170.222656,25.7158203 C170.053385,25.5563143 169.822267,25.3593762 169.529297,25.125 L166.404297,22.625 C165.831377,22.175779 165.374025,21.6044957 165.032227,20.9111328 C164.690428,20.21777 164.519531,19.4283898 164.519531,18.5429688 C164.519531,17.2538998 164.919918,16.2285194 165.720703,15.4667969 C166.521488,14.7050743 167.582676,14.3242188 168.904297,14.3242188 C170.323575,14.3242188 171.451493,14.670895 172.288086,15.3642578 C173.124679,16.0576207 173.640624,17.0390562 173.835938,18.3085938 C173.855469,18.4453132 173.878255,18.6341134 173.904297,18.875 L171.404297,19.5 C171.397786,19.3893224 171.381511,19.2233084 171.355469,19.0019531 C171.244791,18.2076783 170.99577,17.5712915 170.608398,17.0927734 C170.221027,16.6142554 169.652999,16.375 168.904297,16.375 C168.305336,16.375 167.843101,16.5426416 167.517578,16.8779297 C167.192056,17.2132178 167.029297,17.6803355 167.029297,18.2792969 C167.029297,19.2623747 167.445959,20.0859342 168.279297,20.75 L171.404297,23.25 C173.070972,24.597663 173.904297,26.208975 173.904297,28.0839844 C173.904297,29.3665429 173.508793,30.369137 172.717773,31.0917969 C171.926754,31.8144567 170.863939,32.1757812 169.529297,32.1757812 L169.529297,32.1757812 Z M69.9101562,42.4101562 L72.2929688,42.4101562 C72.6575539,42.4101562 72.9700508,42.3304044 73.2304688,42.1708984 C73.4908867,42.0113924 73.6927076,41.7900405 73.8359375,41.5068359 C73.9791674,41.2236314 74.083333,40.9160173 74.1484375,40.5839844 C74.213542,40.2519515 74.2460938,39.8873718 74.2460938,39.4902344 C74.2460938,37.3808488 73.4453205,36.3261719 71.84375,36.3261719 L69.9101562,36.3261719 L69.9101562,42.4101562 Z M69.9101562,50.8671875 L72.5664062,50.8671875 C72.9049496,50.8671875 73.2011706,50.7972012 73.4550781,50.6572266 C73.7089856,50.5172519 73.9140617,50.3333345 74.0703125,50.1054688 C74.2265633,49.877603 74.3518875,49.5911476 74.4462891,49.2460938 C74.5406906,48.9010399 74.6057941,48.549481 74.6416016,48.1914062 C74.677409,47.8333315 74.6953125,47.4329449 74.6953125,46.9902344 C74.6953125,46.593097 74.6790366,46.2382828 74.6464844,45.9257812 C74.6139321,45.6132797 74.5504562,45.304038 74.4560547,44.9980469 C74.3616532,44.6920558 74.2379565,44.4365245 74.0849609,44.2314453 C73.9319654,44.0263662 73.7268893,43.8619798 73.4697266,43.7382812 C73.2125638,43.6145827 72.9114601,43.5527344 72.5664062,43.5527344 L69.9101562,43.5527344 L69.9101562,50.8671875 Z M68.4257812,52 L68.4257812,35.1933594 L72.0390625,35.1933594 C72.6184925,35.1933594 73.1328103,35.2747388 73.5820312,35.4375 C74.0312522,35.6002612 74.3958319,35.8151028 74.6757812,36.0820312 C74.9557306,36.3489597 75.1852205,36.6712221 75.3642578,37.0488281 C75.5432952,37.4264342 75.6669918,37.8105449 75.7353516,38.2011719 C75.8037113,38.5917988 75.8378906,39.0117165 75.8378906,39.4609375 C75.8378906,40.1575556 75.6767594,40.8378873 75.3544922,41.5019531 C75.032225,42.1660189 74.5878935,42.6282539 74.0214844,42.8886719 C74.4186218,43.0514331 74.7636704,43.2906885 75.0566406,43.6064453 C75.3496108,43.9222021 75.574218,44.2753887 75.7304688,44.6660156 C75.8867195,45.0566426 76.0006507,45.4456361 76.0722656,45.8330078 C76.1438806,46.2203795 76.1796875,46.6061179 76.1796875,46.9902344 C76.1796875,47.5761748 76.1520185,48.0937478 76.0966797,48.5429688 C76.0413409,48.9921897 75.9306649,49.4430316 75.7646484,49.8955078 C75.598632,50.347984 75.3789076,50.7207017 75.1054688,51.0136719 C74.8320299,51.3066421 74.4609398,51.5442699 73.9921875,51.7265625 C73.5234352,51.9088551 72.9700553,52 72.3320312,52 L68.4257812,52 Z M77.9960938,47.1269531 L77.9960938,40.0859375 C77.9960938,39.4934866 78.0400386,38.9498723 78.1279297,38.4550781 C78.2158208,37.960284 78.3639313,37.4931663 78.5722656,37.0537109 C78.7806,36.6142556 79.0442692,36.2431656 79.3632812,35.9404297 C79.6822933,35.6376938 80.0891902,35.3984384 80.5839844,35.2226562 C81.0787785,35.0468741 81.6451791,34.9589844 82.2832031,34.9589844 C82.9212271,34.9589844 83.4876277,35.0468741 83.9824219,35.2226562 C84.477216,35.3984384 84.884113,35.6376938 85.203125,35.9404297 C85.522137,36.2431656 85.7858063,36.6142556 85.9941406,37.0537109 C86.202475,37.4931663 86.3505855,37.960284 86.4384766,38.4550781 C86.5263676,38.9498723 86.5703125,39.4934866 86.5703125,40.0859375 L86.5703125,47.1269531 C86.5703125,50.5514494 85.1412903,52.2636719 82.2832031,52.2636719 C79.4251159,52.2636719 77.9960938,50.5514494 77.9960938,47.1269531 L77.9960938,47.1269531 Z M85.0859375,47.4589844 L85.0859375,39.7539062 C85.0859375,37.3515505 84.1517021,36.1503906 82.2832031,36.1503906 C80.4147042,36.1503906 79.4804688,37.3515505 79.4804688,39.7539062 L79.4804688,47.4589844 C79.4804688,49.8678506 80.4147042,51.0722656 82.2832031,51.0722656 C84.1517021,51.0722656 85.0859375,49.8678506 85.0859375,47.4589844 L85.0859375,47.4589844 Z M90.6035156,52 L90.6035156,36.3847656 L87.3320312,36.3847656 L87.3320312,35.1933594 L95.3886719,35.1933594 L95.3886719,36.3847656 L92.0878906,36.3847656 L92.0878906,52 L90.6035156,52 Z" id="MISSINGKIDS--Copy" fill="#FFFFFF"></path>
                    <g id="bullhorn">
                        <g id="Group-2">
                            <g id="bullhorn">
                                <g id="Group-2">
                                    <g id="Group" transform="translate(28.528447, 31.976575) rotate(-90.000000) translate(-28.528447, -31.976575) translate(-2.937616, 3.241881)">
                                        <use id="Rectangle-96" stroke="#00546A" mask="url(#mask-4)" stroke-width="2.49599991" fill="#F7F7F7" xlink:href="#path-3"></use>
                                        <use id="Rectangle-96-Copy-3" stroke="#00546A" mask="url(#mask-6)" stroke-width="2.49599991" fill="#F7F7F7" xlink:href="#path-5"></use>
                                        <use id="Rectangle-96-Copy-2" stroke="#00546A" mask="url(#mask-8)" stroke-width="2.49599991" fill="#F7F7F7" xlink:href="#path-7"></use>
                                        <use id="Rectangle-96-Copy-4" stroke="#00546A" mask="url(#mask-10)" stroke-width="2.49599991" fill="#F7F7F7" xlink:href="#path-9"></use>
                                        <rect id="Rectangle-181" fill="#008DB1" opacity="0.400000006" x="59.5791855" y="26.9061224" width="1.54751131" height="3.91836735" rx="5.19999981"></rect>
                                        <use id="Rectangle-96-Copy" stroke="#00546A" mask="url(#mask-12)" stroke-width="2.49599991" fill="#00546A" xlink:href="#path-11"></use>
                                        <use id="Rectangle-100" stroke="#00546A" mask="url(#mask-14)" stroke-width="2.49599991" fill="#F7F7F7" xlink:href="#path-13"></use>
                                        <use id="Rectangle-100-Copy" stroke="#00546A" mask="url(#mask-16)" stroke-width="2.49599991" fill="#F7F7F7" xlink:href="#path-15"></use>
                                    </g>
                                    <rect id="Rectangle-103" fill="#008DB1" opacity="0.4" transform="translate(45.762688, 13.318374) rotate(-233.000000) translate(-45.762688, -13.318374) " x="40.4963835" y="11.9066096" width="10.5326087" height="2.82352941" rx="31.1999989"></rect>
                                    <rect id="Rectangle-103-Copy" fill="#008DB1" opacity="0.4" transform="translate(40.660386, 20.167834) rotate(-233.000000) translate(-40.660386, -20.167834) " x="38.8016904" y="18.7560694" width="3.7173913" height="2.82352941" rx="31.1999989"></rect>
                                    <rect id="Rectangle-105" fill="#008DB1" opacity="0.4" x="33.3016304" y="36.3921569" width="2.78804348" height="11.9215686" rx="31.1999989"></rect>
                                    <path d="M31.9076087,60.5490196 L34.6902094,60.5490196 C35.0353918,60.5490196 35.0998477,60.7235083 34.8251316,60.9460784 L34.2563901,61.4068627 C33.9857232,61.6261523 33.4758832,61.8039216 33.1370348,61.8039216 L31.9076087,61.8039216 L31.9076087,60.5490196 Z" id="Rectangle-105-Copy" fill="#008DB1" opacity="0.4"></path>
                                    <use id="Rectangle-106-Copy-7" stroke="#008DB1" mask="url(#mask-18)" stroke-width="1.24799995" opacity="0.4" xlink:href="#path-17"></use>
                                    <use id="Rectangle-106" stroke="#00546A" mask="url(#mask-20)" stroke-width="1.24799995" xlink:href="#path-19"></use>
                                    <use id="Rectangle-106-Copy-6" stroke="#008DB1" mask="url(#mask-22)" stroke-width="1.24799995" opacity="0.4" xlink:href="#path-21"></use>
                                    <use id="Rectangle-106-Copy" stroke="#00546A" mask="url(#mask-24)" stroke-width="1.24799995" xlink:href="#path-23"></use>
                                    <use id="Rectangle-106-Copy-5" stroke="#008DB1" mask="url(#mask-26)" stroke-width="1.24799995" opacity="0.4" xlink:href="#path-25"></use>
                                    <use id="Rectangle-106-Copy-2" stroke="#00546A" mask="url(#mask-28)" stroke-width="1.24799995" xlink:href="#path-27"></use>
                                </g>
                                <rect id="Rectangle-137" fill="#008DB1" opacity="0.4" transform="translate(43.888486, 54.796959) rotate(-10.200000) translate(-43.888486, -54.796959) " x="39.6521739" y="54.1695078" width="8.47262404" height="1.25490196" rx="0.935999966"></rect>
                                <rect id="Rectangle-137-Copy" fill="#008DB1" opacity="0.4" transform="translate(49.453079, 53.752061) rotate(-10.200000) translate(-49.453079, -53.752061) " x="48.4214047" y="53.1246098" width="2.06334842" height="1.25490196" rx="0.935999966"></rect>
                            </g>
                        </g>
                        <use id="Rectangle-106-Copy-4" stroke="#008DB1" mask="url(#mask-30)" stroke-width="1.24799995" opacity="0.4" xlink:href="#path-29"></use>
                        <use id="Rectangle-106-Copy-3" stroke="#00546A" mask="url(#mask-32)" stroke-width="1.24799995" xlink:href="#path-31"></use>
                        <g id="eyes" transform="translate(19.516304, 12.235294)">
                            <ellipse id="Oval-18-Copy-6" fill="#008DB1" opacity="0.4" cx="2.78804348" cy="2.82352941" rx="2.47826087" ry="2.50980392"></ellipse>
                            <ellipse id="Oval-18" fill="#0E4658" cx="2.47826087" cy="2.50980392" rx="2.47826087" ry="2.50980392"></ellipse>
                            <ellipse id="Oval-18-Copy-3" fill="#F7F7F7" cx="2.47826087" cy="2.50980392" rx="0.929347826" ry="0.941176471"></ellipse>
                            <ellipse id="Oval-18-Copy-7" fill="#008DB1" opacity="0.4" cx="15.1793478" cy="2.82352941" rx="2.47826087" ry="2.50980392"></ellipse>
                            <ellipse id="Oval-18-Copy" fill="#0E4658" cx="14.8695652" cy="2.50980392" rx="2.47826087" ry="2.50980392"></ellipse>
                            <ellipse id="Oval-18-Copy-2" fill="#F7F7F7" cx="14.8695652" cy="2.50980392" rx="0.929347826" ry="0.941176471"></ellipse>
                        </g>
                    </g>
                </g>
            </g>
        </g>
    </g>
</svg>